# xmcd CD database file
#
# Track frame offsets:
#	150
#	6945
#	21750
#	39222
#	58387
#	76515
#	99345
#	124490
#	145220
#
# Disc length: 2462 seconds
#
# Revision: 0
# Processed by: cddbd v1.5.1PL0 Copyright (c) Steve Scherf et al.
# Submitted via: CDex 1.51
#
DISCID=6c099c09
DTITLE=Various Artist - せんせいのお時間　スペシャル盤
DYEAR=2004
DGENRE=Techno
TTITLE0=せんせいのお時間　ごーるどサイド - 渋滞のラブ・アフェア (TVサイズ)
TTITLE1=せんせいのお時間　ごーるどサイド - 愛のチカラ
TTITLE2=せんせいのお時間　ごーるどサイド - One's Wish
TTITLE3=せんせいのお時間　ごーるどサイド - 涙のエカテリーナ
TTITLE4=せんせいのお時間　ごーるどサイド - なんて素敵なブラッディ・レイン (ゾリゲンMix)
TTITLE5=せんせいのお時間　ごーるどサイド - いま、いずこ… (サマー'04バージョン)
TTITLE6=せんせいのお時間　ごーるどサイド - エイエイオーです (Toy Land Style)
TTITLE7=せんせいのお時間　ごーるどサイド - はへほへ (フレスカバージョン)
TTITLE8=せんせいのお時間　ごーるどサイド - ブラックボックス
EXTD=YEAR: 2004
EXTT0=
EXTT1=
EXTT2=
EXTT3=
EXTT4=
EXTT5=
EXTT6=
EXTT7=
EXTT8=
PLAYORDER=
